<?xml version="1.0" encoding="UTF-8" standalone="no"?>
<svg
   xmlns:dc="http://purl.org/dc/elements/1.1/"
   xmlns:cc="http://creativecommons.org/ns#"
   xmlns:rdf="http://www.w3.org/1999/02/22-rdf-syntax-ns#"
   xmlns:svg="http://www.w3.org/2000/svg"
   xmlns="http://www.w3.org/2000/svg"
   xmlns:sodipodi="http://sodipodi.sourceforge.net/DTD/sodipodi-0.dtd"
   xmlns:inkscape="http://www.inkscape.org/namespaces/inkscape"
   height="512pt"
   viewBox="-20 0 512 512"
   width="512pt"
   version="1.1"
   id="svg10"
   sodipodi:docname="c.svg"
   inkscape:version="1.0.1 (3bc2e813f5, 2020-09-07)">
  <metadata
     id="metadata16">
    <rdf:RDF>
      <cc:Work
         rdf:about="">
        <dc:format>image/svg+xml</dc:format>
        <dc:type
           rdf:resource="http://purl.org/dc/dcmitype/StillImage" />
      </cc:Work>
    </rdf:RDF>
  </metadata>
  <defs
     id="defs14" />
  <sodipodi:namedview
     pagecolor="#ffffff"
     bordercolor="#666666"
     borderopacity="1"
     objecttolerance="10"
     gridtolerance="10"
     guidetolerance="10"
     inkscape:pageopacity="0"
     inkscape:pageshadow="2"
     inkscape:window-width="2560"
     inkscape:window-height="1361"
     id="namedview12"
     showgrid="false"
     inkscape:zoom="1.4765625"
     inkscape:cx="285.12169"
     inkscape:cy="341.33333"
     inkscape:window-x="-9"
     inkscape:window-y="-9"
     inkscape:window-maximized="1"
     inkscape:current-layer="svg10" />
  <path
     d="m41 497c0 8.285156 6.714844 15 15 15h360c8.285156 0 15-6.714844 15-15v-45h-390zm0 0"
     id="path2"
     style="fill:#c02717;fill-opacity:1" />
  <path
     d="m331 8.78125v91.21875h91.210938zm0 0"
     id="path4"
     style="fill:#c02717;fill-opacity:1" />
  <path
     d="m431 130h-115c-8.285156 0-15-6.714844-15-15v-115h-245c-8.285156 0-15 6.714844-15 15v147h390zm0 0"
     id="path6"
     style="fill:#c02717;fill-opacity:1" />
  <path
     d="m457 192h-442c-8.285156 0-15 6.714844-15 15v200c0 8.285156 6.714844 15 15 15h442c8.285156 0 15-6.714844 15-15v-200c0-8.285156-6.714844-15-15-15zm-318 160c8.269531 0 15-6.730469 15-15 0-8.285156 6.714844-15 15-15s15 6.714844 15 15c0 24.8125-20.1875 45-45 45s-45-20.1875-45-45v-60c0-24.8125 20.1875-45 45-45s45 20.1875 45 45c0 8.285156-6.714844 15-15 15s-15-6.714844-15-15c0-8.269531-6.730469-15-15-15s-15 6.730469-15 15v60c0 8.269531 6.730469 15 15 15zm122-30h-10v10c0 8.285156-6.714844 15-15 15s-15-6.714844-15-15v-10h-10c-8.285156 0-15-6.714844-15-15s6.714844-15 15-15h10v-10c0-8.285156 6.714844-15 15-15s15 6.714844 15 15v10h10c8.285156 0 15 6.714844 15 15s-6.714844 15-15 15zm100 0h-10v10c0 8.285156-6.714844 15-15 15s-15-6.714844-15-15v-10h-10c-8.285156 0-15-6.714844-15-15s6.714844-15 15-15h10v-10c0-8.285156 6.714844-15 15-15s15 6.714844 15 15v10h10c8.285156 0 15 6.714844 15 15s-6.714844 15-15 15zm0 0"
     id="path8"
     style="fill:#c02717;fill-opacity:1" />
</svg>
