<?xml version="1.0" encoding="UTF-8" standalone="no"?>
<svg
   xmlns:dc="http://purl.org/dc/elements/1.1/"
   xmlns:cc="http://creativecommons.org/ns#"
   xmlns:rdf="http://www.w3.org/1999/02/22-rdf-syntax-ns#"
   xmlns:svg="http://www.w3.org/2000/svg"
   xmlns="http://www.w3.org/2000/svg"
   xmlns:sodipodi="http://sodipodi.sourceforge.net/DTD/sodipodi-0.dtd"
   xmlns:inkscape="http://www.inkscape.org/namespaces/inkscape"
   version="1.1"
   id="Layer_1"
   x="0px"
   y="0px"
   viewBox="0 0 330 330"
   style="enable-background:new 0 0 330 330;"
   xml:space="preserve"
   sodipodi:docname="info.svg"
   inkscape:version="1.0.1 (3bc2e813f5, 2020-09-07)"><metadata
   id="metadata49"><rdf:RDF><cc:Work
       rdf:about=""><dc:format>image/svg+xml</dc:format><dc:type
         rdf:resource="http://purl.org/dc/dcmitype/StillImage" /></cc:Work></rdf:RDF></metadata><defs
   id="defs47" /><sodipodi:namedview
   pagecolor="#ffffff"
   bordercolor="#666666"
   borderopacity="1"
   objecttolerance="10"
   gridtolerance="10"
   guidetolerance="10"
   inkscape:pageopacity="0"
   inkscape:pageshadow="2"
   inkscape:window-width="2560"
   inkscape:window-height="1361"
   id="namedview45"
   showgrid="false"
   inkscape:zoom="1.5272727"
   inkscape:cx="-107.12878"
   inkscape:cy="194.66308"
   inkscape:window-x="-9"
   inkscape:window-y="-9"
   inkscape:window-maximized="1"
   inkscape:current-layer="Layer_1" />
<g
   id="g12"
   style="fill:#8ea604;fill-opacity:1">
	<g
   id="g10"
   style="fill:#8ea604;fill-opacity:1">
		<g
   id="g8"
   style="fill:#8ea604;fill-opacity:1">
			<path
   d="M165,0.008C74.019,0.008,0,74.024,0,164.999c0,90.977,74.019,164.992,165,164.992s165-74.015,165-164.992     C330,74.024,255.981,0.008,165,0.008z M165,299.992c-74.439,0-135-60.557-135-134.992S90.561,30.008,165,30.008     s135,60.557,135,134.991C300,239.436,239.439,299.992,165,299.992z"
   id="path2"
   style="fill:#8ea604;fill-opacity:1" />
			<path
   d="M165,130.008c-8.284,0-15,6.716-15,15v99.983c0,8.284,6.716,15,15,15s15-6.716,15-15v-99.983     C180,136.725,173.284,130.008,165,130.008z"
   id="path4"
   style="fill:#8ea604;fill-opacity:1" />
			<path
   d="M165,70.011c-3.95,0-7.811,1.6-10.61,4.39c-2.79,2.79-4.39,6.66-4.39,10.61s1.6,7.81,4.39,10.61     c2.79,2.79,6.66,4.39,10.61,4.39s7.81-1.6,10.609-4.39c2.79-2.8,4.391-6.66,4.391-10.61s-1.601-7.82-4.391-10.61     C172.81,71.61,168.95,70.011,165,70.011z"
   id="path6"
   style="fill:#8ea604;fill-opacity:1" />
		</g>
	</g>
</g>
<g
   id="g14">
</g>
<g
   id="g16">
</g>
<g
   id="g18">
</g>
<g
   id="g20">
</g>
<g
   id="g22">
</g>
<g
   id="g24">
</g>
<g
   id="g26">
</g>
<g
   id="g28">
</g>
<g
   id="g30">
</g>
<g
   id="g32">
</g>
<g
   id="g34">
</g>
<g
   id="g36">
</g>
<g
   id="g38">
</g>
<g
   id="g40">
</g>
<g
   id="g42">
</g>
</svg>
