<?xml version="1.0" encoding="UTF-8" standalone="no"?>
<svg
   xmlns:dc="http://purl.org/dc/elements/1.1/"
   xmlns:cc="http://creativecommons.org/ns#"
   xmlns:rdf="http://www.w3.org/1999/02/22-rdf-syntax-ns#"
   xmlns:svg="http://www.w3.org/2000/svg"
   xmlns="http://www.w3.org/2000/svg"
   xmlns:sodipodi="http://sodipodi.sourceforge.net/DTD/sodipodi-0.dtd"
   xmlns:inkscape="http://www.inkscape.org/namespaces/inkscape"
   version="1.1"
   id="Capa_1"
   x="0px"
   y="0px"
   viewBox="0 0 512 512"
   style="enable-background:new 0 0 512 512;"
   xml:space="preserve"
   sodipodi:docname="paint_brush.svg"
   inkscape:version="1.0.1 (3bc2e813f5, 2020-09-07)"><metadata
   id="metadata49"><rdf:RDF><cc:Work
       rdf:about=""><dc:format>image/svg+xml</dc:format><dc:type
         rdf:resource="http://purl.org/dc/dcmitype/StillImage" /></cc:Work></rdf:RDF></metadata><defs
   id="defs47" /><sodipodi:namedview
   pagecolor="#ffffff"
   bordercolor="#666666"
   borderopacity="1"
   objecttolerance="10"
   gridtolerance="10"
   guidetolerance="10"
   inkscape:pageopacity="0"
   inkscape:pageshadow="2"
   inkscape:window-width="2060"
   inkscape:window-height="1137"
   id="namedview45"
   showgrid="false"
   inkscape:zoom="1.3921165"
   inkscape:cx="242.45488"
   inkscape:cy="232.49778"
   inkscape:window-x="0"
   inkscape:window-y="0"
   inkscape:window-maximized="0"
   inkscape:current-layer="Capa_1" />
<g
   id="g6"
   style="fill:#e59500;fill-opacity:1">
	<g
   id="g4"
   style="fill:#e59500;fill-opacity:1">
		<path
   d="M499.377,46.402c-8.014-8.006-18.662-12.485-29.985-12.613c-0.166-0.002-0.331-0.003-0.496-0.003    c-11.142,0-21.698,4.229-29.771,11.945L198.872,275.458c25.716,6.555,47.683,23.057,62.044,47.196    c4.376,7.356,7.859,15.143,10.453,23.179l228.691-239.172C507.759,98.604,512,88.031,512,76.89    C512,65.383,507.522,54.56,499.377,46.402z"
   id="path2"
   style="fill:#e59500;fill-opacity:1" />
	</g>
</g>
<g
   id="g12"
   style="fill:#e59500;fill-opacity:1">
	<g
   id="g10"
   style="fill:#e59500;fill-opacity:1">
		<path
   d="M176.588,302.344c-1.209-0.051-2.418-0.076-3.626-0.076c-20.273,0-40.381,7.05-56.784,18.851    c-19.772,14.225-27.656,34.656-42.174,53.27C55.8,397.728,27.795,409.14,0,416.923c16.187,42.781,76.32,60.297,115.752,61.24    c1.416,0.034,2.839,0.051,4.273,0.051c44.646,0,97.233-16.594,118.755-60.522C262.408,369.468,233.284,304.717,176.588,302.344z"
   id="path8"
   style="fill:#e59500;fill-opacity:1" />
	</g>
</g>
<g
   id="g14">
</g>
<g
   id="g16">
</g>
<g
   id="g18">
</g>
<g
   id="g20">
</g>
<g
   id="g22">
</g>
<g
   id="g24">
</g>
<g
   id="g26">
</g>
<g
   id="g28">
</g>
<g
   id="g30">
</g>
<g
   id="g32">
</g>
<g
   id="g34">
</g>
<g
   id="g36">
</g>
<g
   id="g38">
</g>
<g
   id="g40">
</g>
<g
   id="g42">
</g>
</svg>
