<?xml version="1.0" encoding="UTF-8" standalone="no"?>
<svg
   xmlns:dc="http://purl.org/dc/elements/1.1/"
   xmlns:cc="http://creativecommons.org/ns#"
   xmlns:rdf="http://www.w3.org/1999/02/22-rdf-syntax-ns#"
   xmlns:svg="http://www.w3.org/2000/svg"
   xmlns="http://www.w3.org/2000/svg"
   xmlns:sodipodi="http://sodipodi.sourceforge.net/DTD/sodipodi-0.dtd"
   xmlns:inkscape="http://www.inkscape.org/namespaces/inkscape"
   width="88.222603mm"
   height="9.535553mm"
   viewBox="0 0 88.222603 9.535553"
   version="1.1"
   id="svg8"
   inkscape:version="1.0.1 (3bc2e813f5, 2020-09-07)"
   sodipodi:docname="simplex_logo.svg">
  <defs
     id="defs2">
    <rect
       x="-11.607745"
       y="-7.6755804"
       width="111.18412"
       height="30.335091"
       id="rect839" />
  </defs>
  <sodipodi:namedview
     id="base"
     pagecolor="#ffffff"
     bordercolor="#666666"
     borderopacity="1.0"
     inkscape:pageopacity="0.0"
     inkscape:pageshadow="2"
     inkscape:zoom="1.979899"
     inkscape:cx="-28.375634"
     inkscape:cy="160.23247"
     inkscape:document-units="mm"
     inkscape:current-layer="layer1"
     inkscape:document-rotation="0"
     showgrid="false"
     fit-margin-top="0"
     fit-margin-left="0"
     fit-margin-right="0"
     fit-margin-bottom="0"
     inkscape:window-width="2560"
     inkscape:window-height="1361"
     inkscape:window-x="-9"
     inkscape:window-y="-9"
     inkscape:window-maximized="1" />
  <metadata
     id="metadata5">
    <rdf:RDF>
      <cc:Work
         rdf:about="">
        <dc:format>image/svg+xml</dc:format>
        <dc:type
           rdf:resource="http://purl.org/dc/dcmitype/StillImage" />
        <dc:title></dc:title>
      </cc:Work>
    </rdf:RDF>
  </metadata>
  <g
     inkscape:label="Vrstva 1"
     inkscape:groupmode="layer"
     id="layer1"
     transform="translate(-1.622097,-1.8124878)">
    <g
       aria-label="the simplex theme"
       id="text835"
       style="font-style:normal;font-variant:normal;font-weight:normal;font-stretch:normal;font-size:10.5833px;line-height:1.25;font-family:'Exo 2';-inkscape-font-specification:'Exo 2, ';fill:#000000;fill-opacity:1;stroke:none;stroke-width:0.264583">
      <path
         d="m 3.4530079,2.5427355 v 5.2598999 q 0,0.3704155 0.1587495,0.529165 0.1587495,0.1587495 0.5397482,0.1587495 h 0.7831642 l 0.105833,0.6879144 q -0.1693328,0.042333 -0.3915821,0.074083 -0.2222493,0.03175 -0.4339153,0.042333 -0.211666,0.021167 -0.3386655,0.021167 -0.6455813,0 -0.9842469,-0.3598322 Q 2.5534274,8.5963829 2.5534274,7.9190517 V 2.5427355 Z M 5.0934193,4.0667306 V 4.7758117 H 1.622097 V 4.1196471 l 1.0159968,-0.052917 z"
         style="font-style:normal;font-variant:normal;font-weight:normal;font-stretch:normal;font-family:'Exo 2';-inkscape-font-specification:'Exo 2, ';stroke-width:0.264583"
         id="path843" />
      <path
         d="m 9.3267243,3.939731 q 1.3969957,0 1.3969957,1.4181622 V 9.2207975 H 9.8135561 V 5.6118924 q 0,-0.5185817 -0.1693328,-0.7090811 -0.1587495,-0.2010827 -0.5609149,-0.2010827 -0.4762485,0 -0.952497,0.2222493 -0.4762485,0.2222493 -1.132413,0.6455813 L 6.9560652,4.9239779 Q 7.5593132,4.468896 8.151978,4.2043135 8.7446428,3.939731 9.3267243,3.939731 Z M 7.093648,1.8124878 7.1042313,3.8550646 q 0,0.3492489 -0.03175,0.6561646 -0.021167,0.3069157 -0.074083,0.5397483 L 7.093648,5.209727 V 9.2207975 H 6.1940676 V 1.8124878 Z"
         style="font-style:normal;font-variant:normal;font-weight:normal;font-stretch:normal;font-family:'Exo 2';-inkscape-font-specification:'Exo 2, ';stroke-width:0.264583"
         id="path845" />
      <path
         d="m 14.459618,3.939731 q 1.164162,0 1.682744,0.423332 0.529165,0.423332 0.529165,1.2594127 0.01058,0.6879144 -0.285749,1.0794965 Q 16.089446,7.082971 15.443864,7.082971 H 12.438207 V 6.3844732 h 2.772825 q 0.349249,0 0.455082,-0.2328326 0.105833,-0.2434158 0.105833,-0.5291649 -0.01058,-0.4974151 -0.296333,-0.7090811 -0.285749,-0.211666 -0.973663,-0.211666 -0.560915,0 -0.888997,0.1693328 -0.317499,0.1587495 -0.455082,0.5714982 -0.127,0.4021654 -0.127,1.132413 0,0.8254974 0.15875,1.2594127 0.169332,0.4339153 0.529165,0.5926648 0.359832,0.1587495 0.952497,0.1587495 0.412748,0 0.89958,-0.03175 0.497415,-0.042333 0.888997,-0.09525 l 0.09525,0.603248 q -0.243416,0.09525 -0.603248,0.1587495 -0.349249,0.0635 -0.730248,0.09525 -0.370415,0.03175 -0.666748,0.03175 -0.888997,0 -1.428745,-0.2645825 -0.539749,-0.2751657 -0.793748,-0.8678305 -0.243416,-0.6032481 -0.243416,-1.587495 0,-1.0159967 0.243416,-1.5980782 Q 12.586373,4.4371461 13.104955,4.1937302 13.63412,3.939731 14.459618,3.939731 Z"
         style="font-style:normal;font-variant:normal;font-weight:normal;font-stretch:normal;font-family:'Exo 2';-inkscape-font-specification:'Exo 2, ';stroke-width:0.264583"
         id="path847" />
      <path
         d="m 22.100743,3.939731 q 0.338666,0 0.719665,0.021167 0.380998,0.021167 0.751414,0.052917 0.380999,0.03175 0.698498,0.084666 l -0.07408,0.6561646 q -0.486832,-0.021167 -0.984247,-0.03175 -0.486832,-0.021167 -0.973664,-0.021167 -0.476248,-0.010583 -0.751414,0.021167 -0.275166,0.03175 -0.402166,0.1693328 -0.116416,0.1375829 -0.116416,0.4656652 0,0.4021654 0.1905,0.529165 0.190499,0.1269995 0.560914,0.2116659 l 1.502829,0.3386656 q 0.613831,0.1481662 0.89958,0.4550819 0.296333,0.3069157 0.296333,0.9630803 0,0.634998 -0.243416,0.952497 -0.232833,0.3174989 -0.719664,0.4233319 -0.486832,0.105833 -1.238246,0.105833 -0.275166,0 -0.825498,-0.021167 -0.539748,-0.021167 -1.195913,-0.1269996 l 0.0635,-0.6561645 q 0.253999,0.010583 0.539748,0.03175 0.285749,0.010583 0.592665,0.010583 0.317499,0 0.645581,0 0.582082,0 0.910164,-0.052916 0.328082,-0.052917 0.465665,-0.2010827 0.137583,-0.1587495 0.137583,-0.4656652 0,-0.3809988 -0.222249,-0.5079984 -0.222249,-0.1269996 -0.592665,-0.211666 L 21.254079,6.7972219 Q 20.830747,6.6913889 20.576748,6.5220561 20.322749,6.34214 20.206333,6.0669742 q -0.116417,-0.285749 -0.116417,-0.709081 0,-0.6032481 0.211666,-0.9101638 0.211666,-0.3069157 0.656165,-0.4127487 0.444498,-0.105833 1.142996,-0.09525 z"
         style="font-style:normal;font-variant:normal;font-weight:normal;font-stretch:normal;font-family:'Exo 2';-inkscape-font-specification:'Exo 2, ';stroke-width:0.264583"
         id="path849" />
      <path
         d="M 26.693887,4.0667306 V 9.2207975 H 25.80489 V 4.0667306 Z m -0.232832,-2.190743 q 0.275166,0 0.275166,0.2751658 v 0.6032481 q 0,0.2751658 -0.275166,0.2751658 h -0.423332 q -0.275166,0 -0.275166,-0.2751658 V 2.1511534 q 0,-0.2751658 0.275166,-0.2751658 z"
         style="font-style:normal;font-variant:normal;font-weight:normal;font-stretch:normal;font-family:'Exo 2';-inkscape-font-specification:'Exo 2, ';stroke-width:0.264583"
         id="path851" />
      <path
         d="m 34.663105,3.939731 q 0.666748,0 1.015997,0.3598322 0.359832,0.3598322 0.359832,1.05833 V 9.2207975 H 35.149937 V 5.6118924 q -0.01058,-0.4762485 -0.1905,-0.6879145 -0.179916,-0.2222493 -0.613831,-0.2222493 -0.275166,0 -0.529165,0.09525 -0.243416,0.084666 -0.539748,0.2751658 -0.296333,0.1904994 -0.719665,0.4974151 l -0.05292,-0.634998 q 0.560915,-0.4974151 1.09008,-0.740831 0.529164,-0.2539992 1.068913,-0.2539992 z m -5.535066,0.1269996 0.0635,0.9842469 0.09525,0.1587495 V 9.2207975 H 28.387208 V 4.0667306 Z M 31.287032,3.939731 q 0.656165,0 1.005414,0.3598322 0.349249,0.3492489 0.359832,1.05833 V 9.2207975 H 31.784447 V 5.6118924 q 0,-0.4974151 -0.201082,-0.6984978 -0.201083,-0.211666 -0.603249,-0.211666 -0.264582,0 -0.518581,0.084666 -0.243416,0.084666 -0.550332,0.2751658 -0.296332,0.1904994 -0.730247,0.5079984 l -0.0635,-0.634998 q 0.560915,-0.4974151 1.09008,-0.740831 0.529165,-0.2539992 1.079496,-0.2539992 z"
         style="font-style:normal;font-variant:normal;font-weight:normal;font-stretch:normal;font-family:'Exo 2';-inkscape-font-specification:'Exo 2, ';stroke-width:0.264583"
         id="path853" />
      <path
         d="m 40.610912,3.939731 q 0.941914,0 1.354663,0.6984978 0.412748,0.6879145 0.412748,2.0319935 0,0.9948302 -0.211666,1.587495 -0.211666,0.5820815 -0.645581,0.8360806 -0.423332,0.2539992 -1.09008,0.2539992 -0.507998,0 -1.005413,-0.1375829 -0.486832,-0.1375829 -0.952497,-0.4233319 l 0.05292,-0.5397483 q 0.497415,0.1375829 0.878414,0.2328326 0.380999,0.084666 0.804331,0.084666 0.455082,0 0.719664,-0.1587495 0.275166,-0.1587495 0.402166,-0.5714982 0.126999,-0.4127487 0.126999,-1.164163 0,-0.7302476 -0.116416,-1.1535796 -0.116416,-0.423332 -0.370415,-0.6032481 -0.243416,-0.1904994 -0.656165,-0.1904994 -0.423332,0 -0.836081,0.2010827 -0.412748,0.2010827 -0.96308,0.6138314 L 38.430753,4.9345612 Q 38.716502,4.6276455 39.076334,4.4053962 39.436166,4.1831469 39.827748,4.0667306 40.229914,3.939731 40.610912,3.939731 Z m -2.211909,0.1269996 0.09525,1.0689133 0.0635,0.1375829 v 3.3019895 l -0.04233,0.1269996 q 0.03175,0.2963323 0.03175,0.5714981 0.01058,0.2751658 0.01058,0.5820815 v 1.4922455 h -0.89958 V 4.0667306 Z"
         style="font-style:normal;font-variant:normal;font-weight:normal;font-stretch:normal;font-family:'Exo 2';-inkscape-font-specification:'Exo 2, ';stroke-width:0.264583"
         id="path855" />
      <path
         d="m 44.706649,1.8124878 -0.01058,5.9901476 q 0,0.3386656 0.179916,0.5185817 0.190499,0.1693328 0.529165,0.1693328 h 0.497415 l 0.105833,0.6879144 q -0.09525,0.042333 -0.275166,0.074083 -0.169333,0.03175 -0.359832,0.042333 -0.179916,0.021167 -0.306916,0.021167 -0.571498,0 -0.920747,-0.3386656 Q 43.807068,8.6387161 43.807068,8.0037181 V 1.8124878 Z"
         style="font-style:normal;font-variant:normal;font-weight:normal;font-stretch:normal;font-family:'Exo 2';-inkscape-font-specification:'Exo 2, ';stroke-width:0.264583"
         id="path857" />
      <path
         d="m 49.056375,3.939731 q 1.164163,0 1.682745,0.423332 0.529165,0.423332 0.529165,1.2594127 0.01058,0.6879144 -0.285749,1.0794965 Q 50.686204,7.082971 50.040622,7.082971 H 47.034965 V 6.3844732 h 2.772825 q 0.349249,0 0.455082,-0.2328326 0.105833,-0.2434158 0.105833,-0.5291649 -0.01058,-0.4974151 -0.296333,-0.7090811 -0.285749,-0.211666 -0.973663,-0.211666 -0.560915,0 -0.888998,0.1693328 -0.317499,0.1587495 -0.455081,0.5714982 -0.127,0.4021654 -0.127,1.132413 0,0.8254974 0.158749,1.2594127 0.169333,0.4339153 0.529165,0.5926648 0.359833,0.1587495 0.952497,0.1587495 0.412749,0 0.899581,-0.03175 0.497415,-0.042333 0.888997,-0.09525 l 0.09525,0.603248 q -0.243416,0.09525 -0.603248,0.1587495 -0.349249,0.0635 -0.730248,0.09525 -0.370415,0.03175 -0.666748,0.03175 -0.888997,0 -1.428745,-0.2645825 -0.539749,-0.2751657 -0.793748,-0.8678305 -0.243416,-0.6032481 -0.243416,-1.587495 0,-1.0159967 0.243416,-1.5980782 0.253999,-0.5926648 0.772581,-0.8360807 0.529165,-0.2539992 1.354662,-0.2539992 z"
         style="font-style:normal;font-variant:normal;font-weight:normal;font-stretch:normal;font-family:'Exo 2';-inkscape-font-specification:'Exo 2, ';stroke-width:0.264583"
         id="path859" />
      <path
         d="m 57.015001,4.0667306 -1.598078,2.4976587 1.725078,2.6564082 H 56.168337 L 54.485592,6.5643893 56.041337,4.0667306 Z m -3.873488,0 1.555745,2.4976587 -1.672161,2.6564082 H 52.04085 L 53.765928,6.5643893 52.16785,4.0667306 Z M 55.15234,6.1939738 V 6.8924716 H 54.041094 V 6.1939738 Z"
         style="font-style:normal;font-variant:normal;font-weight:normal;font-stretch:normal;font-family:'Exo 2';-inkscape-font-specification:'Exo 2, ';stroke-width:0.264583"
         id="path861" />
      <path
         d="m 61.671632,2.5427355 v 5.2598999 q 0,0.3704155 0.158749,0.529165 0.15875,0.1587495 0.539749,0.1587495 h 0.783164 l 0.105833,0.6879144 q -0.169333,0.042333 -0.391582,0.074083 -0.222249,0.03175 -0.433915,0.042333 -0.211666,0.021167 -0.338666,0.021167 -0.645581,0 -0.984247,-0.3598322 Q 60.772052,8.5963829 60.772052,7.9190517 V 2.5427355 Z m 1.640411,1.5239951 V 4.7758117 H 59.840721 V 4.1196471 l 1.015997,-0.052917 z"
         style="font-style:normal;font-variant:normal;font-weight:normal;font-stretch:normal;font-family:'Exo 2';-inkscape-font-specification:'Exo 2, ';stroke-width:0.264583"
         id="path863" />
      <path
         d="m 67.545349,3.939731 q 1.396995,0 1.396995,1.4181622 V 9.2207975 H 68.032181 V 5.6118924 q 0,-0.5185817 -0.169333,-0.7090811 -0.15875,-0.2010827 -0.560915,-0.2010827 -0.476249,0 -0.952497,0.2222493 -0.476248,0.2222493 -1.132413,0.6455813 L 65.17469,4.9239779 Q 65.777938,4.468896 66.370603,4.2043135 66.963267,3.939731 67.545349,3.939731 Z m -2.233076,-2.1272432 0.01058,2.0425768 q 0,0.3492489 -0.03175,0.6561646 -0.02117,0.3069157 -0.07408,0.5397483 l 0.09525,0.1587495 V 9.2207975 H 64.412692 V 1.8124878 Z"
         style="font-style:normal;font-variant:normal;font-weight:normal;font-stretch:normal;font-family:'Exo 2';-inkscape-font-specification:'Exo 2, ';stroke-width:0.264583"
         id="path865" />
      <path
         d="m 72.67824,3.939731 q 1.164163,0 1.682744,0.423332 0.529165,0.423332 0.529165,1.2594127 Q 74.900733,6.3103901 74.6044,6.7019722 74.308068,7.082971 73.662487,7.082971 H 70.65683 V 6.3844732 h 2.772824 q 0.349249,0 0.455082,-0.2328326 0.105833,-0.2434158 0.105833,-0.5291649 -0.01058,-0.4974151 -0.296333,-0.7090811 -0.285749,-0.211666 -0.973663,-0.211666 -0.560915,0 -0.888997,0.1693328 -0.317499,0.1587495 -0.455082,0.5714982 -0.127,0.4021654 -0.127,1.132413 0,0.8254974 0.15875,1.2594127 0.169333,0.4339153 0.529165,0.5926648 0.359832,0.1587495 0.952497,0.1587495 0.412748,0 0.89958,-0.03175 0.497415,-0.042333 0.888997,-0.09525 l 0.09525,0.603248 q -0.243416,0.09525 -0.603248,0.1587495 -0.349249,0.0635 -0.730248,0.09525 -0.370415,0.03175 -0.666748,0.03175 -0.888997,0 -1.428745,-0.2645825 -0.539748,-0.2751657 -0.793747,-0.8678305 -0.243416,-0.6032481 -0.243416,-1.587495 0,-1.0159967 0.243416,-1.5980782 0.253999,-0.5926648 0.77258,-0.8360807 Q 71.852742,3.939731 72.67824,3.939731 Z"
         style="font-style:normal;font-variant:normal;font-weight:normal;font-stretch:normal;font-family:'Exo 2';-inkscape-font-specification:'Exo 2, ';stroke-width:0.264583"
         id="path867" />
      <path
         d="m 82.520696,3.939731 q 0.666748,0 1.015997,0.3598322 0.359832,0.3598322 0.359832,1.05833 V 9.2207975 H 83.007528 V 5.6118924 Q 82.996945,5.1356439 82.817029,4.9239779 82.637113,4.7017286 82.203197,4.7017286 q -0.275165,0 -0.529165,0.09525 -0.243415,0.084666 -0.539748,0.2751658 -0.296332,0.1904994 -0.719664,0.4974151 l -0.05292,-0.634998 q 0.560915,-0.4974151 1.09008,-0.740831 0.529165,-0.2539992 1.068913,-0.2539992 z m -5.535065,0.1269996 0.0635,0.9842469 0.09525,0.1587495 V 9.2207975 H 76.2448 V 4.0667306 Z M 79.144624,3.939731 q 0.656164,0 1.005413,0.3598322 0.349249,0.3492489 0.359832,1.05833 v 3.8629043 h -0.86783 V 5.6118924 q 0,-0.4974151 -0.201083,-0.6984978 -0.201082,-0.211666 -0.603248,-0.211666 -0.264582,0 -0.518582,0.084666 -0.243415,0.084666 -0.550331,0.2751658 -0.296333,0.1904994 -0.730248,0.5079984 l -0.0635,-0.634998 q 0.560915,-0.4974151 1.09008,-0.740831 0.529165,-0.2539992 1.079497,-0.2539992 z"
         style="font-style:normal;font-variant:normal;font-weight:normal;font-stretch:normal;font-family:'Exo 2';-inkscape-font-specification:'Exo 2, ';stroke-width:0.264583"
         id="path869" />
      <path
         d="m 87.632425,3.939731 q 1.164163,0 1.682745,0.423332 0.529165,0.423332 0.529165,1.2594127 0.01058,0.6879144 -0.285749,1.0794965 Q 89.262253,7.082971 88.616672,7.082971 H 85.611015 V 6.3844732 h 2.772824 q 0.349249,0 0.455082,-0.2328326 0.105833,-0.2434158 0.105833,-0.5291649 -0.01058,-0.4974151 -0.296332,-0.7090811 -0.285749,-0.211666 -0.973664,-0.211666 -0.560914,0 -0.888997,0.1693328 -0.317499,0.1587495 -0.455082,0.5714982 -0.126999,0.4021654 -0.126999,1.132413 0,0.8254974 0.158749,1.2594127 0.169333,0.4339153 0.529165,0.5926648 0.359832,0.1587495 0.952497,0.1587495 0.412749,0 0.899581,-0.03175 0.497415,-0.042333 0.888997,-0.09525 l 0.09525,0.603248 q -0.243416,0.09525 -0.603249,0.1587495 -0.349248,0.0635 -0.730247,0.09525 -0.370416,0.03175 -0.666748,0.03175 -0.888997,0 -1.428746,-0.2645825 -0.539748,-0.2751657 -0.793747,-0.8678305 -0.243416,-0.6032481 -0.243416,-1.587495 0,-1.0159967 0.243416,-1.5980782 0.253999,-0.5926648 0.772581,-0.8360807 0.529165,-0.2539992 1.354662,-0.2539992 z"
         style="font-style:normal;font-variant:normal;font-weight:normal;font-stretch:normal;font-family:'Exo 2';-inkscape-font-specification:'Exo 2, ';stroke-width:0.264583"
         id="path871" />
    </g>
    <text
       xml:space="preserve"
       id="text837"
       style="fill:black;fill-opacity:1;line-height:1.25;stroke:none;font-family:sans-serif;font-style:normal;font-weight:normal;font-size:10.58333333px;white-space:pre;shape-inside:url(#rect839);" />
  </g>
</svg>
