<?xml version="1.0" encoding="iso-8859-1"?>
<!-- Generator: Adobe Illustrator 19.0.0, SVG Export Plug-In . SVG Version: 6.00 Build 0)  -->
<svg version="1.1" id="Capa_1" xmlns="http://www.w3.org/2000/svg" xmlns:xlink="http://www.w3.org/1999/xlink" x="0px" y="0px"
	 viewBox="0 0 512 512" style="enable-background:new 0 0 512 512;" xml:space="preserve">
<path style="fill:#FD3C65;" d="M445.7,412.58c22.5,40-6.4,89.42-52.29,89.42H118.59c-45.89,0-74.79-49.42-52.29-89.42l46.6-82.85
	c49.7,19.84,104.81,17.26,153.1-7.73c37.39-19.36,78.88-25.27,118.77-17.74L445.7,412.58z"/>
<path style="fill:#C4F0FF;" d="M196,50c-11.05,0-20-8.95-20-20s8.95-20,20-20h120c11.05,0,20,8.95,20,20s-8.95,20-20,20v132
	l68.77,122.26c-39.89-7.53-81.38-1.62-118.77,17.74c-48.29,24.99-103.4,27.57-153.1,7.73L196,182V50z"/>
<path style="fill:#FD3C65;" d="M216,242c11.05,0,20,8.95,20,20c0,11.05-8.95,20-20,20s-20-8.95-20-20C196,250.95,204.95,242,216,242
	z"/>
<path d="M296,252c5.52,0,10-4.48,10-10s-4.48-10-10-10s-10,4.48-10,10S290.48,252,296,252z"/>
<path d="M256,192c5.52,0,10-4.48,10-10s-4.48-10-10-10s-10,4.48-10,10S250.48,192,256,192z"/>
<path d="M136,432c-5.52,0-10,4.48-10,10s4.48,10,10,10s10-4.48,10-10S141.52,432,136,432z"/>
<path d="M454.416,407.678L326,179.381V58.286c11.641-4.127,20-15.248,20-28.286c0-16.542-13.458-30-30-30H196
	c-16.542,0-30,13.458-30,30c0,13.038,8.359,24.159,20,28.286v121.095L57.584,407.678c-12.328,21.916-12.109,47.959,0.584,69.663
	C70.86,499.043,93.448,512,118.59,512h274.82c25.142,0,47.729-12.957,60.422-34.659
	C466.525,455.637,466.744,429.594,454.416,407.678z M204.716,186.902c0.842-1.496,1.284-3.185,1.284-4.902V60h10
	c5.522,0,10-4.478,10-10s-4.478-10-10-10h-20c-5.514,0-10-4.486-10-10s4.486-10,10-10h120c5.514,0,10,4.486,10,10s-4.486,10-10,10
	h-20c-5.522,0-10,4.478-10,10s4.478,10,10,10h10v122c0,1.718,0.442,3.405,1.284,4.902l58.941,104.787
	c-35.995-2.915-71.865,4.365-104.821,21.43c-42.366,21.924-89.529,25.784-134,11.227L204.716,186.902z M436.567,467.244
	C427.502,482.745,411.368,492,393.41,492H118.59c-17.958,0-34.092-9.255-43.157-24.756c-9.067-15.503-9.224-34.106-0.417-49.762
	l42.408-75.392c20.576,7.185,41.84,10.812,63.437,10.812c3.197,0,6.402-0.079,9.613-0.238c27.905-1.382,54.862-8.711,80.124-21.784
	c33.792-17.496,70.959-23.536,107.783-17.581l58.604,104.183C445.791,433.138,445.635,451.741,436.567,467.244z"/>
<path d="M216,292c16.542,0,30-13.458,30-30s-13.458-30-30-30s-30,13.458-30,30S199.458,292,216,292z M216,252
	c5.514,0,10,4.486,10,10s-4.486,10-10,10s-10-4.486-10-10S210.486,252,216,252z"/>
<path d="M376,432H176c-5.522,0-10,4.478-10,10s4.478,10,10,10h200c5.522,0,10-4.478,10-10S381.522,432,376,432z"/>
<g>
</g>
<g>
</g>
<g>
</g>
<g>
</g>
<g>
</g>
<g>
</g>
<g>
</g>
<g>
</g>
<g>
</g>
<g>
</g>
<g>
</g>
<g>
</g>
<g>
</g>
<g>
</g>
<g>
</g>
</svg>
